<svg xmlns="http://www.w3.org/2000/svg" width="216" height="43"><rect id="backgroundrect" width="100%" height="100%" x="0" y="0" fill="none" stroke="none"/>
    
<g fill="#3b5998" id="svg_1" class="">
    <path d="M111.23099908447264,20.769000885009767 c-1.784,0 -3.07,0.5850000000000001 -4.374,1.181 v13.486 c1.249,0.11900000000000002 1.965,0.11900000000000002 3.15,0.11900000000000002 c4.282,0 4.869,-1.961 4.869,-4.699 v-6.441 c0,-2.022 -0.6710000000000002,-3.646 -3.645,-3.646 zm-28.438,-0.7360000000000001 c-2.971,0 -3.649,1.6310000000000002 -3.649,3.6510000000000002 v1.135 h7.2940000000000005 v-1.135 c0,-2.02 -0.6780000000000002,-3.6510000000000002 -3.645,-3.6510000000000002 zm-55.09,14.037 c0,1.598 0.7540000000000001,2.428 2.418,2.428 c1.7850000000000001,0 2.842,-0.5820000000000001 4.145,-1.18 v-3.199 h-3.903 c-1.848,0 -2.66,0.3440000000000001 -2.66,1.951 zm111.191,-13.301 c-2.976,0 -4.007,1.624 -4.007,3.646 v7.3790000000000004 c0,2.027 1.031,3.656 4.007,3.656 c2.968,0 4.007,-1.629 4.007,-3.656 v-7.3790000000000004 c-0.0010000000000000002,-2.022 -1.04,-3.646 -4.007,-3.646 zM13.118999084472655,42.34400088500976 h-8.748 V21.170000885009763 H-9.155273446026513e-7 v-7.296 h4.372 V9.492000885009766 c0,-5.953 2.467,-9.492 9.479,-9.492 h5.838 v7.298 H16.039999084472655 c-2.73,0 -2.91,1.02 -2.91,2.923 l-0.011000000000000003,3.652 h6.61 l-0.773,7.296 h-5.837 v21.175 zm29.897,0.05500000000000001 h-7.291 l-0.31500000000000006,-1.844 c-3.329,1.844 -6.3,2.143 -8.26,2.143 c-5.347,0 -8.193,-3.572 -8.193,-8.512 c0,-5.828 3.321,-7.908 9.262,-7.908 h6.047 v-1.26 c0,-2.975 -0.3410000000000001,-3.848 -4.916,-3.848 h-7.48 l0.7310000000000001,-7.296 h8.176 c10.038,0 12.239,3.171 12.239,11.203 v17.322 zm24.793,-20.694 c-4.537,-0.778 -5.84,-0.9490000000000001 -8.023,-0.9490000000000001 c-3.9210000000000003,0 -5.106,0.8650000000000001 -5.106,4.195 v6.299 c0,3.33 1.185,4.199 5.106,4.199 c2.183,0 3.486,-0.17400000000000002 8.023,-0.9550000000000001 v7.117 c-3.974,0.8910000000000001 -6.563,1.125 -8.751,1.125 c-9.392,0 -13.125,-4.939 -13.125,-12.074 v-5.111 c0,-7.141 3.733,-12.089 13.125,-12.089 c2.188,0 4.777,0.23500000000000001 8.751,1.13 v7.113 zm27.376,8.957 h-16.042 v0.5880000000000001 c0,3.33 1.186,4.199 5.106,4.199 c3.524,0 5.675,-0.17400000000000002 10.204,-0.9550000000000001 v7.117 c-4.368,0.8910000000000001 -6.644,1.125 -10.929,1.125 c-9.393,0 -13.128,-4.939 -13.128,-12.074 v-5.844 c0,-6.243 2.771,-11.356 12.396,-11.356 s12.393,5.054 12.393,11.356 v5.844 zm28.437,0.135 c0,6.896 -1.971,11.926 -13.911,11.926 c-4.312,0 -6.841,-0.37900000000000006 -11.6,-1.111 V2.192000885009765 l8.745000000000001,-1.459 V14.522000885009767 c1.8900000000000001,-0.7020000000000001 4.336,-1.059 6.562,-1.059 c8.746,0 10.203,3.9210000000000003 10.203,10.222 v7.112 zm28.033,0.15000000000000002 c0,5.949 -2.456,11.719 -12.732,11.719 c-10.281,0 -12.783,-5.77 -12.783,-11.719 v-5.744 c0,-5.952 2.502,-11.723 12.783,-11.723 c10.276,0 12.732,5.771 12.732,11.723 v5.744 zm28.014,0 c0,5.949 -2.459,11.719 -12.733,11.719 c-10.281,0 -12.783,-5.77 -12.783,-11.719 v-5.744 c0,-5.952 2.502,-11.723 12.783,-11.723 c10.274000000000001,0 12.733,5.771 12.733,11.723 v5.744 zm28.749,11.397 h-9.479 l-8.017,-13.383000000000001 v13.383000000000001 h-8.748 V2.191000885009764 l8.748,-1.459 v25.849 l8.017,-12.707 h9.479 l-8.752,13.867 l8.752,14.603 zm-41.512,-21.575 c-2.971,0 -4.002,1.624 -4.002,3.646 v7.3790000000000004 c0,2.027 1.031,3.656 4.002,3.656 c2.967,0 4.017,-1.629 4.017,-3.656 v-7.3790000000000004 c0,-2.022 -1.05,-3.646 -4.017,-3.646 zM213.41099908447265,37.35000088500976 c1.473,0 2.646,1.201 2.646,2.701 c0,1.5230000000000001 -1.174,2.7110000000000003 -2.657,2.7110000000000003 c-1.476,0 -2.673,-1.188 -2.673,-2.7110000000000003 c0,-1.5 1.197,-2.701 2.673,-2.701 h0.011000000000000003 zm-0.011000000000000003,0.42000000000000004 c-1.187,0 -2.158,1.021 -2.158,2.281 c0,1.283 0.972,2.291 2.169,2.291 c1.198,0.012000000000000002 2.1550000000000002,-1.008 2.1550000000000002,-2.279 s-0.9570000000000001,-2.293 -2.1550000000000002,-2.293 h-0.011000000000000003 zm-0.503,3.853 h-0.48000000000000004 v-3.014 c0.252,-0.035 0.49200000000000005,-0.07 0.8520000000000001,-0.07 c0.456,0 0.7540000000000001,0.09600000000000003 0.937,0.22700000000000004 c0.17700000000000002,0.133 0.272,0.3360000000000001 0.272,0.6230000000000001 c0,0.3980000000000001 -0.262,0.6370000000000001 -0.5850000000000001,0.7340000000000001 v0.023000000000000007 c0.263,0.04900000000000001 0.44200000000000006,0.28700000000000003 0.503,0.7300000000000001 c0.07,0.46900000000000003 0.14300000000000002,0.6480000000000001 0.19000000000000003,0.7460000000000001 h-0.503 c-0.07100000000000001,-0.09800000000000003 -0.14400000000000002,-0.37300000000000005 -0.20400000000000001,-0.77 c-0.07,-0.38300000000000006 -0.264,-0.527 -0.6480000000000001,-0.527 h-0.3330000000000001 v1.298 zm0,-1.6680000000000001 h0.3480000000000001 c0.3940000000000001,0 0.7290000000000001,-0.14500000000000002 0.7290000000000001,-0.518 c0,-0.264 -0.19000000000000003,-0.527 -0.7290000000000001,-0.527 c-0.15700000000000003,0 -0.266,0.012000000000000002 -0.3480000000000001,0.023000000000000007 v1.022 z"/>
</g></svg>