<?xml version="1.0" encoding="UTF-8" standalone="no"?>
<svg
   xmlns:dc="http://purl.org/dc/elements/1.1/"
   xmlns:cc="http://creativecommons.org/ns#"
   xmlns:rdf="http://www.w3.org/1999/02/22-rdf-syntax-ns#"
   xmlns:svg="http://www.w3.org/2000/svg"
   xmlns="http://www.w3.org/2000/svg"
   viewBox="0 0 1594.4875 571.28247"
   height="571.28247"
   width="1594.4875"
   xml:space="preserve"
   version="1.1"
   id="svg2"><metadata
     id="metadata8"><rdf:RDF><cc:Work
         rdf:about=""><dc:format>image/svg+xml</dc:format><dc:type
           rdf:resource="http://purl.org/dc/dcmitype/StillImage" /></cc:Work></rdf:RDF></metadata><defs
     id="defs6"><clipPath
       id="clipPath16"
       clipPathUnits="userSpaceOnUse"><path
         id="path18"
         d="m 0,457.026 1275.591,0 L 1275.591,0 0,0 0,457.026 Z" /></clipPath></defs><g
     transform="matrix(1.25,0,0,-1.25,0,571.2825)"
     id="g10"><g
       id="g12"><g
         clip-path="url(#clipPath16)"
         id="g14"><g
           transform="translate(17.1618,308.328)"
           id="g20"><path
             id="path22"
             style="fill:#252729;fill-opacity:1;fill-rule:nonzero;stroke:none"
             d="m 0,0 c 7.241,-1.8 11.471,-3.305 17.415,-13.957 20.938,-38.408 41.91,-80.763 62.293,-122.439 2.562,-2.155 5.568,-2.634 9.914,-2.634 4.194,0 7.165,0.479 9.838,2.634 9.706,18.338 35.343,67.55 46.405,86.667 12.865,-23.632 35.009,-66.734 43.993,-86.667 2.49,-2.155 5.571,-2.634 9.766,-2.634 4.267,0 7.331,0.479 9.799,2.634 17.95,39.071 37.515,79.632 57.207,117.348 6.836,13.592 9.804,17.248 23.895,19.865 l 5.976,1.058 c 3.397,3.415 2.523,11.437 -1.263,12.978 -9.39,-0.745 -20.472,-1.133 -32.913,-1.133 -10.652,0 -20.826,0.388 -34.952,1.133 -4.268,-1.541 -4.268,-10.339 -1.668,-12.978 l 7.2,-1.39 c 7.331,-1.505 10.691,-3.36 10.691,-5.234 0,-2.58 -1.297,-7.741 -3.952,-14.299 -6.739,-17.07 -13.439,-35.157 -23.797,-56.521 -9.354,17.748 -21.274,41.676 -28.994,59.401 -2.526,6.236 -3.38,8.503 -3.38,11.419 0,1.874 5.902,3.729 15.779,5.566 l 6.348,1.058 c 3.082,1.504 3.415,12.531 -1.262,12.978 -27.289,-0.745 -48.614,-1.133 -75.513,-1.133 l -86.184,0 c -17.915,0 -31.542,0.388 -49.026,1.133 -4.362,-1.857 -4.362,-9.97 -1.407,-12.978 L 0,0 Z m 96.787,0 c 7.758,0 14.534,-0.278 20.531,-1.373 8.536,-1.502 15.777,-13.401 15.777,-19.212 0,-2.967 0,-6.273 -1.3,-11.082 -2.118,-7.385 -16.595,-33.913 -22.629,-43.902 -7.258,11.771 -24.334,45.012 -30.234,57.952 -2.563,5.439 -3.866,9.952 -3.866,12.161 0,4.083 8.095,5.456 21.721,5.456" /></g><g
           transform="translate(373.089,169.7918)"
           id="g24"><path
             id="path26"
             style="fill:#252729;fill-opacity:1;fill-rule:nonzero;stroke:none"
             d="m 0,0 c 25.579,0 57.246,10.726 74.696,42.056 0,6.281 -6.479,9.265 -11.117,8.575 C 52.05,33.579 35.792,31.44 23.874,31.44 c -39.65,0 -60.182,26.869 -60.182,54.541 0,5.884 0.891,6.626 10.728,6.626 l 81.824,0 c 13.328,0 15.407,5.159 15.407,12.157 0,28.439 -23.908,53.148 -68.292,53.148 -53.256,0 -92.087,-36.183 -92.087,-82.68 C -88.728,35.029 -57.581,0 0,0 m 0.447,140.905 c 14.441,0 22.609,-8.055 22.609,-20.251 0,-3.709 -0.856,-7.424 -2.972,-8.482 -4.77,-2.6 -11.581,-3.284 -17.54,-3.284 l -15.779,0 c -13.717,0 -19.62,0.258 -19.62,5.492 0,11.845 15.37,26.525 33.302,26.525" /></g><g
           transform="translate(456.9406,308.328)"
           id="g28"><path
             id="path30"
             style="fill:#252729;fill-opacity:1;fill-rule:nonzero;stroke:none"
             d="m 0,0 c 7.316,-1.8 11.512,-3.305 17.485,-13.957 20.864,-38.408 41.881,-80.763 62.299,-122.439 2.597,-2.155 5.568,-2.634 9.838,-2.634 4.229,0 7.166,0.479 9.782,2.634 9.856,18.338 35.397,67.55 46.534,86.667 12.829,-23.632 34.917,-66.734 43.9,-86.667 2.581,-2.155 5.533,-2.634 9.78,-2.634 4.31,0 7.319,0.479 9.843,2.634 17.947,39.071 37.57,79.632 57.228,117.348 6.829,13.592 9.768,17.248 23.836,19.865 l 6.028,1.058 c 3.365,3.415 2.471,11.437 -1.313,12.978 -9.431,-0.745 -20.46,-1.133 -32.88,-1.133 -10.691,0 -20.855,0.388 -34.952,1.133 -4.324,-1.541 -4.324,-10.339 -1.705,-12.978 l 7.243,-1.39 c 7.273,-1.505 10.65,-3.36 10.65,-5.234 0,-2.58 -1.28,-7.741 -3.804,-14.299 -6.846,-17.07 -13.681,-35.157 -23.946,-56.521 -9.358,17.748 -21.276,41.676 -28.958,59.401 -2.582,6.236 -3.435,8.503 -3.435,11.419 0,1.874 5.923,3.729 15.797,5.566 l 6.35,1.058 c 3.009,1.504 3.452,12.531 -1.263,12.978 -27.27,-0.745 -48.669,-1.133 -75.513,-1.133 l -86.183,0 c -17.838,0 -31.542,0.388 -49.026,1.133 -4.233,-1.857 -4.233,-9.97 -1.262,-12.978 L 0,0 Z m 96.788,0 c 7.792,0 14.568,-0.278 20.566,-1.373 8.538,-1.502 15.777,-13.401 15.777,-19.212 0,-2.967 0,-6.273 -1.263,-11.082 -2.191,-7.385 -16.667,-33.913 -22.608,-43.902 -7.333,11.771 -24.338,45.012 -30.293,57.952 -2.525,5.439 -3.862,9.952 -3.862,12.161 0,4.083 8.055,5.456 21.683,5.456" /></g><g
           transform="translate(822.1969,169.7918)"
           id="g32"><path
             id="path34"
             style="fill:#252729;fill-opacity:1;fill-rule:nonzero;stroke:none"
             d="m 0,0 c 52.403,0 98.099,25.431 98.099,79.369 0,51.996 -45.292,78.543 -95.597,78.543 -50.358,0 -98.584,-29.126 -98.176,-81.92 C -95.171,25.132 -50.865,0 0,0 m 0,140.905 c 24.239,0 36.197,-30.925 36.659,-66.764 0.368,-33.212 -7.781,-57.183 -32.112,-57.183 -24.637,0 -38.775,28.464 -38.775,67.143 0,40.155 15.435,56.804 34.228,56.804" /></g><g
           transform="translate(992.9977,296.4393)"
           id="g36"><path
             id="path38"
             style="fill:#252729;fill-opacity:1;fill-rule:nonzero;stroke:none"
             d="m 0,0 c 2.622,0 6.402,-0.391 16.171,-7.369 5.474,-4.476 10.614,-6.684 16.626,-6.684 13.63,0 27.346,6.999 27.346,23.985 0,13.938 -11.954,21.755 -23.554,21.755 -17.86,0 -30.187,-12.161 -41.782,-18.396 -3.383,0.687 -4.26,1.798 -4.26,4.397 0,3.305 0.877,8.429 1.653,15.872 -1.653,2.191 -4.281,3.359 -7.57,3.359 -13.274,-7.482 -42.693,-17.393 -62.387,-22.238 -2.968,-2.154 -2.968,-8.816 0,-11.041 l 6.087,-3.325 c 8.057,-4.437 8.057,-8.836 8.057,-23.627 l 0,-55.669 c 0,-25.804 -1.712,-29.128 -15.816,-30.286 l -8.113,-0.675 c -3.436,-2.216 -3.436,-10.75 0.449,-12.964 14.104,0.8 32.873,1.121 50.359,1.121 20.007,0 37.12,-0.321 57.62,-1.121 3.838,2.214 3.838,10.748 0.385,12.964 l -13.641,1.033 c -14.086,1.174 -15.814,4.124 -15.814,29.928 l 0,56.796 C -8.184,-8.188 -6.018,0 0,0" /></g><g
           transform="translate(1160.3932,187.7274)"
           id="g40"><path
             id="path42"
             style="fill:#252729;fill-opacity:1;fill-rule:nonzero;stroke:none"
             d="m 0,0 -5.529,-1.157 c -3.461,-3.317 -2.624,-11.018 1.662,-12.84 11.953,0.725 27.253,1.08 52.539,1.08 24.743,0 40.484,-0.355 53.681,-1.08 4.286,1.414 5.157,10.282 1.685,12.84 L 97.705,0 C 86.634,1.822 78.537,3.727 72.555,8.441 61.835,16.914 24.279,67.124 16.714,78.926 c -2.205,2.937 -3.11,5.13 -3.11,6.273 0,1.081 0.453,2.548 2.544,4.809 5.994,5.105 12.508,10.731 28.667,21.423 11.467,7.684 20.502,11.359 28.6,12.863 l 13.592,2.6 c 3.054,2.877 2.646,11.117 -1.719,12.903 -25.116,-3.345 -60.545,-5.162 -80.629,-5.162 l -10.188,0 c -4.252,-1.543 -4.739,-9.596 -0.894,-12.903 L 4.286,120.19 c 3.8,-0.294 8.052,-1.76 8.052,-3.636 0,-2.226 -2.059,-6.254 -10.223,-14.687 L -15.741,83.681 c -8.575,-8.448 -17.525,-10.305 -24.781,-10.305 -4.645,0 -6.018,1.115 -6.018,5.176 l 0,115.797 c 0,23.277 0.539,38.796 1.373,53.889 -1.67,1.893 -4.749,2.561 -7.296,2.561 -21.808,-8.038 -47.776,-16.985 -65.243,-20.587 -3.026,-2.266 -3.026,-8.929 0,-11.026 l 7.237,-3.787 c 8.501,-4.436 8.501,-8.484 8.501,-23.314 l 0,-162.214 c 0,-25.805 -1.706,-28.772 -17.135,-30.304 l -8.09,-0.724 c -3.377,-2.167 -3.377,-10.685 0.425,-12.84 14.945,0.725 32.447,1.08 52.071,1.08 19.657,0 37.546,-0.355 51.268,-1.08 3.775,2.155 3.775,10.673 0.392,12.84 l -6.777,0.724 C -44.816,1.099 -46.54,4.066 -46.54,29.871 l 0,21.358 c 0,7.056 2.157,8.856 5.107,8.856 4.282,0 7.717,-1.501 10.748,-5.439 L -0.44,14.722 C 2.985,10.341 6.797,4.452 6.797,2.857 6.797,1.484 4.286,0.795 0,0" /></g><g
           transform="translate(277.0861,81.8387)"
           id="g44"><path
             id="path46"
             style="fill:#252729;fill-opacity:1;fill-rule:nonzero;stroke:none"
             d="m 0,0 0,12.167 52.497,0 0,-12.167 -19.66,0 0,-58.779 -13.177,0 L 19.66,0 0,0 Z" /></g><g
           transform="translate(349.7545,94.0057)"
           id="g48"><path
             id="path50"
             style="fill:#252729;fill-opacity:1;fill-rule:nonzero;stroke:none"
             d="m 0,0 43.883,0 0,-12.167 -30.709,0 0,-14.893 24.629,0 0,-12.168 -24.629,0 0,-19.557 31.722,0 0,-12.161 L 0,-70.946 0,0 Z" /></g><g
           transform="translate(462.3571,70.285)"
           id="g52"><path
             id="path54"
             style="fill:#252729;fill-opacity:1;fill-rule:nonzero;stroke:none"
             d="m 0,0 c -3.145,8.215 -8.921,12.365 -17.536,12.365 -5.776,0 -10.639,-2.025 -14.49,-6.182 -3.751,-4.151 -5.678,-10.136 -5.678,-17.935 0,-7.806 1.927,-13.784 5.678,-17.941 3.851,-4.158 8.714,-6.183 14.49,-6.183 8.615,0 14.391,4.157 17.536,12.365 l 11.857,-3.042 c -3.345,-13.678 -13.985,-21.484 -29.393,-21.484 -9.422,0 -17.33,3.247 -23.817,9.627 -6.486,6.388 -9.726,15.308 -9.726,26.658 0,11.349 3.24,20.271 9.726,26.65 6.487,6.388 14.395,9.628 23.817,9.628 15.408,0 26.048,-7.799 29.393,-21.484 L 0,0 Z" /></g><g
           transform="translate(494.5871,23.0594)"
           id="g56"><path
             id="path58"
             style="fill:#252729;fill-opacity:1;fill-rule:nonzero;stroke:none"
             d="m 0,0 0,70.946 13.174,0 0,-26.961 28.376,0 0,26.961 13.177,0 0,-70.946 -13.177,0 0,31.824 -28.376,0 L 13.174,0 0,0 Z" /></g><g
           transform="translate(612.5602,94.0057)"
           id="g60"><path
             id="path62"
             style="fill:#252729;fill-opacity:1;fill-rule:nonzero;stroke:none"
             d="m 0,0 13.174,0 0,-70.946 -13.883,0 -26.047,46.822 0,-46.822 -13.174,0 0,70.946 13.883,0 L 0,-46.822 0,0 Z" /></g><g
           transform="translate(681.3785,82.6502)"
           id="g64"><path
             id="path66"
             style="fill:#252729;fill-opacity:1;fill-rule:nonzero;stroke:none"
             d="m 0,0 c -5.777,0 -10.541,-2.025 -14.391,-6.077 -3.752,-4.059 -5.678,-10.036 -5.678,-18.04 0,-8.011 1.926,-13.989 5.678,-18.04 3.85,-4.059 8.614,-6.084 14.391,-6.084 5.777,0 10.538,2.025 14.289,6.084 3.85,4.051 5.776,10.029 5.776,18.04 0,8.004 -1.926,13.981 -5.776,18.04 C 10.538,-2.025 5.777,0 0,0 m 0,12.161 c 12.263,0 22.497,-4.758 28.68,-16.008 3.141,-5.576 4.764,-12.366 4.764,-20.27 0,-15.81 -6.994,-27.364 -16.823,-32.537 C 11.652,-59.188 6.183,-60.402 0,-60.402 c -12.263,0 -22.398,4.764 -28.782,16.014 -3.144,5.575 -4.665,12.366 -4.665,20.271 0,15.809 6.994,27.463 16.825,32.43 4.966,2.535 10.439,3.848 16.622,3.848" /></g><g
           transform="translate(735.5026,94.0057)"
           id="g68"><path
             id="path70"
             style="fill:#252729;fill-opacity:1;fill-rule:nonzero;stroke:none"
             d="m 0,0 13.174,0 0,-58.785 30.101,0 0,-12.161 L 0,-70.946 0,0 Z" /></g><g
           transform="translate(825.2965,82.6502)"
           id="g72"><path
             id="path74"
             style="fill:#252729;fill-opacity:1;fill-rule:nonzero;stroke:none"
             d="m 0,0 c -5.776,0 -10.541,-2.025 -14.391,-6.077 -3.751,-4.059 -5.677,-10.036 -5.677,-18.04 0,-8.011 1.926,-13.989 5.677,-18.04 3.85,-4.059 8.615,-6.084 14.391,-6.084 5.777,0 10.538,2.025 14.289,6.084 3.851,4.051 5.777,10.029 5.777,18.04 0,8.004 -1.926,13.981 -5.777,18.04 C 10.538,-2.025 5.777,0 0,0 m 0,12.161 c 12.264,0 22.498,-4.758 28.681,-16.008 3.14,-5.576 4.763,-12.366 4.763,-20.27 0,-15.81 -6.994,-27.364 -16.822,-32.537 C 11.653,-59.188 6.183,-60.402 0,-60.402 c -12.263,0 -22.398,4.764 -28.782,16.014 -3.144,5.575 -4.665,12.366 -4.665,20.271 0,15.809 6.994,27.463 16.826,32.43 4.965,2.535 10.438,3.848 16.621,3.848" /></g><g
           transform="translate(929.5885,23.0594)"
           id="g76"><path
             id="path78"
             style="fill:#252729;fill-opacity:1;fill-rule:nonzero;stroke:none"
             d="m 0,0 -1.115,7.602 c -3.751,-5.576 -9.426,-8.414 -17.229,-8.414 -9.122,0 -16.826,3.141 -23.21,9.529 -6.384,6.387 -9.528,15.302 -9.528,26.757 0,11.448 3.246,20.369 9.832,26.756 6.588,6.38 14.493,9.522 23.919,9.522 15.302,0 25.74,-8.915 29.492,-22.396 L 0.099,46.216 c -3.646,8.921 -9.423,13.375 -17.43,13.375 -12.062,0 -20.372,-8.308 -20.372,-24.117 0,-16.219 8.211,-24.124 20.068,-24.124 9.627,0 14.998,6.182 15.912,13.48 l -13.176,0 0,10.947 25.945,0 L 11.046,0 0,0 Z" /></g><g
           transform="translate(955.3317,94.0057)"
           id="g80"><path
             id="path82"
             style="fill:#252729;fill-opacity:1;fill-rule:nonzero;stroke:none"
             d="M 0,0 14.19,0 27.061,-27.568 39.931,0 54.117,0 33.649,-40.745 l 0,-30.201 -13.177,0 0,30.201 L 0,0 Z" /></g></g></g></g></svg>