<?xml version="1.0" encoding="UTF-8"?>
<svg width="411px" height="125px" viewBox="0 0 411 125" version="1.1" xmlns="http://www.w3.org/2000/svg" xmlns:xlink="http://www.w3.org/1999/xlink">
    <!-- Generator: Sketch 49 (51002) - http://www.bohemiancoding.com/sketch -->
    <title>Group 4</title>
    <desc>Created with Sketch.</desc>
    <defs>
        <polygon id="path-1" points="0.474699422 0.0469 14.9787457 0.0469 14.9787457 18.6666667 0.474699422 18.6666667"></polygon>
        <polygon id="path-3" points="0 18.9560467 407.758035 18.9560467 407.758035 4.66666667e-05 0 4.66666667e-05"></polygon>
    </defs>
    <g id="Page-1" stroke="none" stroke-width="1" fill="none" fill-rule="evenodd">
        <g id="LOGO" transform="translate(-144.000000, -423.000000)">
            <g id="Group-4" transform="translate(145.000000, 423.000000)">
                <g id="Group-2">
                    <g id="Group">
                        <path d="M286.819386,0.594866924 L251.936592,0.594866924 C251.54465,0.594866924 251.152709,0.986957711 251.283356,1.3790485 L251.283356,1.64044236 L251.283356,6.99901644 C251.283356,7.52180416 251.675297,7.78319802 252.067239,7.78319802 L266.177133,7.91389495 L266.177133,64.6363621 C266.177133,65.2898468 266.699722,65.8126345 267.352958,65.8126345 L272.970786,65.8126345 C273.624022,65.8126345 274.146611,65.2898468 274.146611,64.6363621 L274.146611,7.91389495 L287.341975,8.04459188 C287.733916,8.04459188 287.99521,7.65250109 287.99521,7.2604103 L287.99521,1.77113929 C287.99521,1.11765464 287.472622,0.594866924 286.819386,0.594866924 Z" id="Path" fill="#4296FF"></path>
                        <path d="M320.003767,7.78319802 C320.395709,7.78319802 320.657003,7.39110723 320.657003,6.99901644 L320.657003,1.3790485 C320.657003,0.725563853 320.134414,0.202776138 319.481178,0.202776138 C299.622809,0.464169995 288.909741,11.8348028 288.909741,32.8770084 C288.909741,54.1806078 299.753456,65.5512406 320.003767,65.6819375 C320.395709,65.6819375 320.657003,65.2898468 320.657003,64.897756 L320.657003,58.8856972 C320.657003,58.4936065 320.395709,58.1015157 320.003767,58.1015157 C305.893873,57.9708187 296.748571,50.6517907 296.748571,36.9286132 L319.089237,36.9286132 C319.742473,36.9286132 320.265061,36.4058255 320.265061,35.7523408 L320.265061,30.1323729 C320.265061,29.4788882 319.742473,28.9561005 319.089237,28.9561005 L296.748571,28.9561005 C296.748571,15.102226 306.02452,7.91389495 320.003767,7.78319802 Z" id="Path" fill="#4296FF"></path>
                        <path d="M329.018422,65.6819375 L335.289486,65.6819375 C335.681427,65.6819375 336.073369,65.2898468 336.073369,64.897756 L335.942722,21.2449817 L356.32368,65.4205437 C356.454327,65.6819375 356.715622,65.8126345 356.976916,65.8126345 C362.202803,65.8126345 363.639922,65.8126345 362.725391,65.8126345 C363.24798,65.8126345 363.770569,65.5512406 363.770569,65.0284529 L363.770569,1.64044236 C363.770569,0.986957711 363.24798,0.464169996 362.594744,0.464169996 L357.23821,0.464169996 C356.584974,0.464169996 356.062386,0.986957711 356.062386,1.64044236 L356.062386,47.6457614 L334.897544,0.856260782 C334.766897,0.594866924 334.505603,0.464169996 334.244308,0.464169996 L329.671658,0.464169996 C329.018422,0.464169996 328.495833,0.986957711 328.495833,1.64044236 L328.365186,64.897756 C328.365186,65.2898468 328.62648,65.6819375 329.018422,65.6819375 Z" id="Path" fill="#4296FF"></path>
                        <path d="M372.654576,65.0284529 L372.654576,59.0163942 C372.654576,58.6243034 373.046518,58.2322126 373.438459,58.2322126 C391.467769,58.1015157 396.04042,55.4875771 396.04042,48.6913368 L396.04042,42.4178842 C396.04042,38.8890671 396.95495,36.0137347 398.78401,33.9225838 C399.175952,33.3997961 399.175952,32.7463115 398.78401,32.3542207 C396.95495,30.1323729 396.04042,27.2570404 396.04042,23.7282234 L396.04042,17.4547708 C396.04042,10.6585305 391.467769,8.04459188 373.438459,7.91389495 C373.046518,7.91389495 372.654576,7.52180416 372.654576,7.12971337 L372.654576,1.50974543 C372.654576,0.856260782 373.177165,0.333473067 373.830401,0.333473067 C397.738833,0.333473067 403.748603,3.73159322 403.748603,16.0171045 L403.748603,23.0747387 C403.748603,26.9956466 406.100252,28.8254036 409.758372,29.0867974 C410.150314,29.0867974 410.411608,29.3481913 410.411608,29.7402821 L410.411608,36.2751285 C410.411608,36.6672193 410.150314,37.0593101 409.758372,37.0593101 C406.100252,37.320704 403.748603,39.150461 403.748603,43.0713688 L403.748603,50.129003 C403.748603,62.5452113 397.608186,65.6819375 373.438459,65.8126345 C373.046518,65.8126345 372.654576,65.4205437 372.654576,65.0284529 Z" id="Path" fill="#4296FF"></path>
                        <path d="M374.091695,53.5271232 L378.92564,53.5271232 C379.578876,53.5271232 380.101465,53.0043354 380.101465,52.3508508 L380.101465,13.7952568 C380.101465,13.1417721 379.578876,12.6189844 378.92564,12.6189844 L374.091695,12.6189844 C373.438459,12.6189844 372.915871,13.1417721 372.915871,13.7952568 L372.915871,52.3508508 C372.915871,53.0043354 373.438459,53.5271232 374.091695,53.5271232 Z" id="Path" fill="#4296FF"></path>
                        <path d="M118.758277,7.78319802 C119.150219,7.78319802 119.411513,7.39110723 119.411513,6.99901644 L119.411513,1.3790485 C119.411513,0.725563853 118.888924,0.202776138 118.235688,0.202776138 C98.3773186,0.464169995 87.6642507,11.8348028 87.6642507,32.8770084 C87.6642507,54.1806078 98.3773186,65.5512406 118.758277,65.6819375 C119.150219,65.6819375 119.411513,65.2898468 119.411513,64.897756 L119.411513,58.8856972 C119.411513,58.4936065 119.150219,58.1015157 118.758277,58.1015157 C104.125794,57.9708187 95.5030809,47.9071552 95.5030809,32.8770084 C95.5030809,17.1933769 104.125794,7.91389495 118.758277,7.78319802 Z" id="Path" fill="#4296FF"></path>
                        <path d="M0,35.7523408 C0,36.1444316 0.391941508,36.5365224 0.783883017,36.5365224 L27.4359056,36.5365224 L27.4359056,65.0284529 C27.4359056,65.4205437 27.8278471,65.8126345 28.2197886,65.8126345 L34.7521471,65.8126345 C35.1440886,65.8126345 35.4053829,65.4205437 35.4053829,65.0284529 L35.4053829,1.3790485 C35.4053829,0.986957711 35.1440886,0.594866924 34.7521471,0.594866924 L28.2197886,0.594866924 C27.8278471,0.594866924 27.4359056,0.986957711 27.4359056,1.3790485 L27.4359056,28.9561005 L0.783883017,28.9561005 C0.391941508,28.9561005 0,29.3481913 0,29.7402821 L0,35.7523408 Z" id="Path" fill="#4296FF"></path>
                        <path d="M42.3296829,64.767059 C42.0683886,65.2898468 42.4603301,65.8126345 42.9829188,65.8126345 L49.9072187,65.8126345 C50.1685131,65.8126345 50.4298074,65.6819375 50.5604546,65.4205437 L58.0073432,36.5365224 L69.7655885,36.5365224 L77.2124772,65.4205437 C77.3431243,65.6819375 77.6044187,65.8126345 77.865713,65.8126345 L84.790013,65.8126345 C85.3126017,65.8126345 85.7045432,65.2898468 85.4432488,64.767059 L68.589764,0.856260782 C68.4591168,0.594866924 68.1978225,0.464169996 67.9365281,0.464169996 L59.8364036,0.464169996 C59.5751093,0.464169996 59.3138149,0.594866924 59.1831678,0.856260782 L42.3296829,64.767059 Z" id="Path" fill="#4296FF"></path>
                        <polygon id="Path" fill="#FFFFFF" points="59.9670508 28.9561005 63.8864659 14.0566506 67.805881 28.9561005"></polygon>
                        <path d="M209.606909,64.767059 C209.345614,65.2898468 209.737556,65.8126345 210.260145,65.8126345 L217.184445,65.8126345 C217.445739,65.8126345 217.707033,65.6819375 217.83768,65.4205437 L228.420101,41.5030057 L239.002522,65.4205437 C239.133169,65.6819375 239.394463,65.8126345 239.655758,65.8126345 L246.580058,65.8126345 C247.102646,65.8126345 247.494588,65.2898468 247.233294,64.767059 L232.600811,32.0928268 L246.188116,1.50974543 C246.449411,0.986957711 246.057469,0.464169996 245.53488,0.464169996 L238.871875,0.464169996 C238.61058,0.464169996 238.349286,0.594866924 238.218639,0.856260782 L228.420101,22.6826479 L218.621564,0.856260782 C218.490916,0.594866924 218.229622,0.464169996 217.968328,0.464169996 L211.305322,0.464169996 C210.782733,0.464169996 210.390792,0.986957711 210.652086,1.50974543 L224.239392,32.0928268 L209.606909,64.767059 Z" id="Path" fill="#4296FF"></path>
                        <path d="M0,23.2054356 C0,23.5975264 0.391941508,23.9896172 0.783883017,23.9896172 L7.31624149,23.9896172 C7.708183,23.9896172 7.96947734,23.5975264 7.96947734,23.2054356 L7.96947734,1.3790485 C7.96947734,0.986957711 7.708183,0.594866924 7.31624149,0.594866924 L0.783883017,0.594866924 C0.391941508,0.594866924 0,0.986957711 0,1.3790485 L0,23.2054356 Z" id="Path" fill="#4296FF"></path>
                        <path d="M0,65.0284529 C0,65.4205437 0.391941508,65.8126345 0.783883017,65.8126345 L7.31624149,65.8126345 C7.708183,65.8126345 7.96947734,65.4205437 7.96947734,65.0284529 L7.96947734,42.2871873 C7.96947734,41.8950965 7.708183,41.5030057 7.31624149,41.5030057 L0.783883017,41.5030057 C0.391941508,41.5030057 0,41.8950965 0,42.2871873 L0,65.0284529 Z" id="Path" fill="#4296FF"></path>
                        <path d="M128.556815,65.1591498 C128.556815,65.5512406 128.948756,65.9433314 129.340698,65.9433314 L135.873056,65.9433314 C136.264998,65.9433314 136.526292,65.5512406 136.526292,65.1591498 L136.526292,35.6216439 L136.787586,35.36025 L137.832764,34.0532807 L158.475017,65.4205437 C158.605664,65.6819375 158.866958,65.8126345 159.128252,65.8126345 L165.791258,65.8126345 C166.313847,65.8126345 166.705788,65.2898468 166.444494,64.767059 L136.787586,19.1538308 L136.526292,18.892437 L136.526292,1.50974543 C136.526292,1.11765464 136.264998,0.725563853 135.873056,0.725563853 L129.340698,0.725563853 C128.948756,0.725563853 128.556815,1.11765464 128.556815,1.50974543 L128.556815,19.1538308 C128.426168,19.2845278 128.426168,19.5459216 128.556815,19.8073155 L128.556815,34.7067654 C128.426168,34.9681592 128.426168,35.2295531 128.556815,35.36025 L128.556815,65.1591498 Z" id="Path" fill="#4296FF"></path>
                        <path d="M144.365122,21.1142848 L148.15389,26.9956466 L167.750966,1.50974543 C168.01226,0.986957711 167.620318,0.464169996 167.09773,0.464169996 L160.434724,0.464169996 C160.17343,0.464169996 159.912135,0.594866924 159.781488,0.856260782 L144.365122,21.1142848 Z" id="Path" fill="#4296FF"></path>
                        <path d="M201.114843,7.78319802 C201.506784,7.78319802 201.768079,7.39110723 201.768079,6.99901644 L201.768079,1.3790485 C201.768079,0.725563853 201.24549,0.202776138 200.592254,0.202776138 C180.733884,0.464169995 170.020816,11.8348028 170.020816,32.8770084 C170.020816,54.1806078 180.864532,65.5512406 201.114843,65.6819375 C201.506784,65.6819375 201.768079,65.2898468 201.768079,64.897756 L201.768079,58.8856972 C201.768079,58.4936065 201.506784,58.1015157 201.114843,58.1015157 C187.004948,57.9708187 177.859647,50.6517907 177.859647,36.9286132 L200.200313,36.9286132 C200.853548,36.9286132 201.376137,36.4058255 201.376137,35.7523408 L201.376137,30.1323729 C201.376137,29.4788882 200.853548,28.9561005 200.200313,28.9561005 L177.859647,28.9561005 C177.859647,15.102226 187.135596,7.91389495 201.114843,7.78319802 Z" id="Path" fill="#4296FF"></path>
                    </g>
                </g>
            </g>
            <g id="Page-1" transform="translate(146.000000, 513.000000)">
                <path d="M6.40168786,15.6520467 C8.88301734,15.6520467 10.1224971,14.76538 10.1224971,12.9920467 C10.1224971,12.1520467 9.81677457,11.5407133 9.20295954,11.1580467 C8.58677457,10.77538 7.6506474,10.5840467 6.40168786,10.5840467 L3.89665896,10.5840467 L3.89665896,15.6520467 L6.40168786,15.6520467 Z M6.00353757,7.72804667 C7.08186127,7.72804667 7.88290173,7.52738 8.40665896,7.12604667 C8.92330636,6.72471333 9.18873988,6.16004667 9.18873988,5.43204667 C9.18873988,4.68538 8.92804624,4.14404667 8.42087861,3.80804667 C7.90660116,3.47204667 7.11030058,3.30404667 6.03197688,3.30404667 L3.89665896,3.30404667 L3.89665896,7.72804667 L6.00353757,7.72804667 Z M0.000473988439,0.336046667 L6.23105202,0.336046667 C10.7386821,0.336046667 12.997237,1.84804667 12.997237,4.87204667 C12.997237,5.73071333 12.7720925,6.53338 12.3123237,7.28004667 C11.8596647,8.02671333 11.2529595,8.54004667 10.494578,8.82004667 L10.494578,8.93204667 C11.5349827,9.19338 12.3739422,9.68338 12.997237,10.4020467 C13.6229017,11.1207133 13.938104,12.0680467 13.938104,13.2440467 C13.938104,15.01738 13.2697803,16.3567133 11.9473526,17.2620467 C10.617815,18.16738 8.88301734,18.6200467 6.7405896,18.6200467 L0.000473988439,18.6200467 L0.000473988439,0.336046667 Z" id="Fill-1" fill="#000000"></path>
                <g id="Group-5" transform="translate(16.589595, 0.289380)">
                    <mask id="mask-2" fill="white">
                        <use xlink:href="#path-1"></use>
                    </mask>
                    <g id="Clip-4"></g>
                    <path d="M2.33747399,16.5669 C1.09562428,15.1669 0.474699422,12.9829 0.474699422,10.0149 L0.474699422,0.0469 L4.36851445,0.0469 L4.36851445,10.3789 C4.36851445,12.1522333 4.65527746,13.4215667 5.22406358,14.1869 C5.79284971,14.9522333 6.63417919,15.3349 7.75516185,15.3349 C8.8927341,15.3349 9.75539306,14.9522333 10.3431387,14.1869 C10.9308844,13.4215667 11.2247572,12.1522333 11.2247572,10.3789 L11.2247572,0.0469 L14.9787457,0.0469 L14.9787457,10.0149 C14.9787457,12.9829 14.3673006,15.1669 13.1444104,16.5669 C11.9215202,17.9669 10.125104,18.6669 7.75516185,18.6669 C5.38284971,18.6669 3.57695376,17.9669 2.33747399,16.5669" id="Fill-3" fill="#000000" mask="url(#mask-2)"></path>
                </g>
                <mask id="mask-4" fill="white">
                    <use xlink:href="#path-3"></use>
                </mask>
                <g id="Clip-7"></g>
                <polygon id="Fill-6" fill="#000000" mask="url(#mask-4)" points="35.9780925 18.6200467 39.8742775 18.6200467 39.8742775 0.336046667 35.9780925 0.336046667"></polygon>
                <polygon id="Fill-8" fill="#000000" mask="url(#mask-4)" points="44.3669769 0.336046667 48.2631618 0.336046667 48.2631618 15.4000467 55.7142601 15.4000467 55.7142601 18.6200467 44.3669769 18.6200467"></polygon>
                <path d="M63.8749191,15.5118133 C67.5127803,15.5118133 69.3352659,13.4771467 69.3352659,9.40781333 C69.3352659,7.29848 68.8636474,5.77714667 67.9275202,4.84381333 C66.9866532,3.91048 65.6357861,3.44381333 63.8749191,3.44381333 L62.8487341,3.44381333 L62.8487341,15.5118133 L63.8749191,15.5118133 Z M58.9549191,0.335813333 L64.1024335,0.335813333 C67.0198324,0.335813333 69.290237,1.09181333 70.9136474,2.60381333 C72.5323179,4.11581333 73.3428382,6.38381333 73.3428382,9.40781333 C73.3428382,12.4318133 72.5417977,14.7231467 70.9397168,16.2818133 C69.3400058,17.84048 67.1335896,18.6198133 64.327578,18.6198133 L58.9549191,18.6198133 L58.9549191,0.335813333 Z" id="Fill-9" fill="#000000" mask="url(#mask-4)"></path>
                <path d="M90.4952948,11.0878133 L89.9810173,9.21181333 C89.7558728,8.39048 89.4146012,7.10248 88.9595723,5.34781333 L88.4192254,3.27581333 L88.3030983,3.27581333 C87.7366821,5.68381333 87.2318844,7.66248 86.795815,9.21181333 L86.2862775,11.0878133 L90.4952948,11.0878133 Z M91.2915954,14.0558133 L85.4615376,14.0558133 L84.2102081,18.6198133 L80.2287052,18.6198133 L86.141711,0.335813333 L90.7773179,0.335813333 L96.6666243,18.6198133 L92.5405549,18.6198133 L91.2915954,14.0558133 Z" id="Fill-10" fill="#000000" mask="url(#mask-4)"></path>
                <path d="M98.769237,0.336046667 L103.063572,0.336046667 L106.163457,8.73604667 C106.44785,9.53871333 106.694324,10.3040467 106.902879,11.0320467 L107.27259,12.1800467 L107.386347,12.1800467 L107.898254,10.5840467 C108.199237,9.57604667 108.398312,8.96004667 108.49548,8.73604667 L111.510046,0.336046667 L115.802012,0.336046667 L115.802012,18.6200467 L112.247098,18.6200467 L112.247098,11.3680467 C112.247098,10.34138 112.370335,8.68004667 112.619179,6.38404667 L112.732936,5.29204667 L112.619179,5.29204667 L111.111896,9.57604667 L108.353283,16.9960467 L106.132647,16.9960467 L103.374035,9.57604667 L101.895191,5.29204667 L101.781434,5.29204667 L101.895191,6.38404667 C102.144035,8.68004667 102.267272,10.34138 102.267272,11.3680467 L102.267272,18.6200467 L98.769237,18.6200467 L98.769237,0.336046667 Z" id="Fill-11" fill="#000000" mask="url(#mask-4)"></path>
                <path d="M128.175954,11.0878133 L127.661676,9.21181333 C127.436532,8.39048 127.09526,7.10248 126.640231,5.34781333 L126.099884,3.27581333 L125.983757,3.27581333 C125.417341,5.68381333 124.912543,7.66248 124.476474,9.21181333 L123.966936,11.0878133 L128.175954,11.0878133 Z M128.972254,14.0558133 L123.142197,14.0558133 L121.890867,18.6198133 L117.909364,18.6198133 L123.82237,0.335813333 L128.457977,0.335813333 L134.347283,18.6198133 L130.221214,18.6198133 L128.972254,14.0558133 Z" id="Fill-12" fill="#000000" mask="url(#mask-4)"></path>
                <polygon id="Fill-13" fill="#000000" mask="url(#mask-4)" points="135.17226 16.2958133 143.644803 3.55581333 135.968561 3.55581333 135.968561 0.335813333 148.453416 0.335813333 148.453416 2.65981333 139.976133 15.3998133 148.510295 15.3998133 148.510295 18.6198133 135.17226 18.6198133"></polygon>
                <polygon id="Fill-14" fill="#000000" mask="url(#mask-4)" points="151.749769 18.6200467 155.645954 18.6200467 155.645954 0.336046667 151.749769 0.336046667"></polygon>
                <path d="M160.140075,0.336046667 L164.147647,0.336046667 L169.295162,9.82804667 L171.146087,13.8040467 L171.257474,13.8040467 C171.240884,13.4867133 171.193486,12.9920467 171.117647,12.3200467 C170.890133,10.1547133 170.774006,8.47471333 170.774006,7.28004667 L170.774006,0.336046667 L174.473486,0.336046667 L174.473486,18.6200467 L170.491983,18.6200467 L165.342098,9.12804667 L163.465104,5.15204667 L163.351347,5.15204667 C163.370306,5.37604667 163.420075,5.79604667 163.495913,6.41204667 C163.590711,7.27071333 163.673659,8.17138 163.749497,9.11404667 C163.827705,10.0567133 163.863254,10.8920467 163.863254,11.6200467 L163.863254,18.6200467 L160.140075,18.6200467 L160.140075,0.336046667 Z" id="Fill-15" fill="#000000" mask="url(#mask-4)"></path>
                <path d="M182.421798,17.8633467 C181.066191,17.1353467 179.999717,16.06668 179.220006,14.6573467 C178.442665,13.2480133 178.056364,11.5540133 178.056364,9.57534667 C178.056364,7.61534667 178.454514,5.91201333 179.250815,4.46534667 C180.047116,3.01868 181.123069,1.91501333 182.476306,1.14734667 C183.834283,0.382013333 185.343936,-0.000653333333 187.012376,-0.000653333333 C189.270931,-0.000653333333 191.195324,0.783346667 192.787925,2.35134667 L190.740295,4.81534667 C190.209428,4.33001333 189.664341,3.96134667 189.102665,3.70934667 C188.545728,3.45734667 187.896364,3.33134667 187.156942,3.33134667 C185.62122,3.33134667 184.38885,3.87734667 183.457462,4.96934667 C182.530815,6.06134667 182.066306,7.55001333 182.066306,9.43534667 C182.066306,11.4140133 182.521335,12.9400133 183.431393,14.0133467 C184.341451,15.0890133 185.678098,15.6233467 187.441335,15.6233467 C187.858445,15.6233467 188.266075,15.5673467 188.664225,15.4553467 C189.062376,15.3433467 189.384688,15.1940133 189.631162,15.0073467 L189.631162,11.5913467 L186.41752,11.5913467 L186.41752,8.45534667 L193.100757,8.45534667 L193.100757,16.7433467 C192.418214,17.39668 191.546075,17.92868 190.481971,18.3393467 C189.422607,18.7500133 188.275555,18.9553467 187.043185,18.9553467 C185.317867,18.9553467 183.775035,18.5913467 182.421798,17.8633467" id="Fill-16" fill="#000000" mask="url(#mask-4)"></path>
                <polygon id="Fill-17" fill="#000000" mask="url(#mask-4)" points="206.380491 3.55581333 201.202168 3.55581333 201.202168 0.335813333 215.481069 0.335813333 215.481069 3.55581333 210.276676 3.55581333 210.276676 18.6198133 206.380491 18.6198133"></polygon>
                <polygon id="Fill-18" fill="#000000" mask="url(#mask-4)" points="218.43852 0.336046667 229.928 0.336046667 229.928 3.55604667 222.334705 3.55604667 222.334705 7.56004667 228.790428 7.56004667 228.790428 10.7800467 222.334705 10.7800467 222.334705 15.4000467 230.212393 15.4000467 230.212393 18.6200467 218.43852 18.6200467"></polygon>
                <path d="M237.249936,17.8633467 C235.951208,17.1353467 234.925023,16.06668 234.164272,14.6573467 C233.40589,13.2480133 233.029069,11.5540133 233.029069,9.57534667 C233.029069,7.61534667 233.41537,5.91201333 234.192711,4.46534667 C234.970052,3.01868 236.022306,1.91501333 237.349474,1.14734667 C238.679012,0.382013333 240.127046,-0.000653333333 241.700688,-0.000653333333 C242.821671,-0.000653333333 243.847855,0.21868 244.788723,0.657346667 C245.72485,1.09601333 246.53537,1.66068 247.217913,2.35134667 L245.141844,4.81534667 C244.629936,4.33001333 244.106179,3.96134667 243.563462,3.70934667 C243.025486,3.45734667 242.433,3.33134667 241.786006,3.33134667 C240.875948,3.33134667 240.063058,3.57868 239.340225,4.07334667 C238.619763,4.56801333 238.055717,5.27734667 237.648087,6.20134667 C237.240457,7.12534667 237.036642,8.20334667 237.036642,9.43534667 C237.036642,11.3580133 237.458491,12.8700133 238.302191,13.9713467 C239.14589,15.07268 240.288202,15.6233467 241.731497,15.6233467 C243.151092,15.6233467 244.395312,15.0353467 245.454676,13.8593467 L247.530746,16.2673467 C245.978434,18.0593467 243.994792,18.9553467 241.586931,18.9553467 C239.994329,18.9553467 238.548665,18.5913467 237.249936,17.8633467" id="Fill-19" fill="#000000" mask="url(#mask-4)"></path>
                <polygon id="Fill-20" fill="#000000" mask="url(#mask-4)" points="250.43274 0.336046667 254.328925 0.336046667 254.328925 7.47604667 261.09748 7.47604667 261.09748 0.336046667 264.993665 0.336046667 264.993665 18.6200467 261.09748 18.6200467 261.09748 10.8360467 254.328925 10.8360467 254.328925 18.6200467 250.43274 18.6200467"></polygon>
                <polygon id="Fill-21" fill="#000000" mask="url(#mask-4)" points="278.844318 3.55581333 273.665994 3.55581333 273.665994 0.335813333 287.944896 0.335813333 287.944896 3.55581333 282.740503 3.55581333 282.740503 18.6198133 278.844318 18.6198133"></polygon>
                <path d="M300.726942,13.94428 C301.513763,12.82428 301.907173,11.31228 301.907173,9.40828 C301.907173,7.52294667 301.513763,6.03894667 300.726942,4.95628 C299.940121,3.87361333 298.885497,3.33228 297.55596,3.33228 C296.209832,3.33228 295.148098,3.86894667 294.370757,4.94228 C293.593416,6.01561333 293.204746,7.50428 293.204746,9.40828 C293.204746,11.31228 293.598156,12.82428 294.384977,13.94428 C295.171798,15.06428 296.231162,15.62428 297.55596,15.62428 C298.885497,15.62428 299.940121,15.06428 300.726942,13.94428 M293.190526,17.80828 C291.929717,17.0429467 290.948561,15.9369467 290.247058,14.49028 C289.545555,13.0436133 289.197173,11.3496133 289.197173,9.40828 C289.197173,7.44828 289.545555,5.76361333 290.247058,4.35428 C290.948561,2.94494667 291.929717,1.86694667 293.190526,1.12028 C294.453705,0.373613333 295.90885,0.00028 297.55596,0.00028 C299.205439,0.00028 300.662954,0.373613333 301.921393,1.12028 C303.182202,1.86694667 304.158618,2.94961333 304.850642,4.36828 C305.542665,5.78694667 305.891046,7.46694667 305.891046,9.40828 C305.891046,11.3496133 305.542665,13.0436133 304.850642,14.49028 C304.158618,15.9369467 303.182202,17.0429467 301.921393,17.80828 C300.662954,18.5736133 299.205439,18.95628 297.55596,18.95628 C295.90885,18.95628 294.453705,18.5736133 293.190526,17.80828" id="Fill-22" fill="#000000" mask="url(#mask-4)"></path>
                <path d="M312.928353,17.8633467 C311.572746,17.1353467 310.506272,16.06668 309.726561,14.6573467 C308.94922,13.2480133 308.562919,11.5540133 308.562919,9.57534667 C308.562919,7.61534667 308.961069,5.91201333 309.75737,4.46534667 C310.553671,3.01868 311.629624,1.91501333 312.982861,1.14734667 C314.340838,0.382013333 315.850491,-0.000653333333 317.518931,-0.000653333333 C319.777486,-0.000653333333 321.701879,0.783346667 323.29448,2.35134667 L321.24685,4.81534667 C320.715983,4.33001333 320.170896,3.96134667 319.60922,3.70934667 C319.052283,3.45734667 318.402919,3.33134667 317.663497,3.33134667 C316.127775,3.33134667 314.895405,3.87734667 313.964017,4.96934667 C313.03737,6.06134667 312.572861,7.55001333 312.572861,9.43534667 C312.572861,11.4140133 313.02789,12.9400133 313.937948,14.0133467 C314.848006,15.0890133 316.184653,15.6233467 317.94789,15.6233467 C318.365,15.6233467 318.77263,15.5673467 319.17078,15.4553467 C319.568931,15.3433467 319.891243,15.1940133 320.137717,15.0073467 L320.137717,11.5913467 L316.924075,11.5913467 L316.924075,8.45534667 L323.607312,8.45534667 L323.607312,16.7433467 C322.924769,17.39668 322.05263,17.92868 320.988526,18.3393467 C319.929162,18.7500133 318.78211,18.9553467 317.54974,18.9553467 C315.824422,18.9553467 314.28159,18.5913467 312.928353,17.8633467" id="Fill-23" fill="#000000" mask="url(#mask-4)"></path>
                <polygon id="Fill-24" fill="#000000" mask="url(#mask-4)" points="327.532173 0.336046667 339.021653 0.336046667 339.021653 3.55604667 331.428358 3.55604667 331.428358 7.56004667 337.884081 7.56004667 337.884081 10.7800467 331.428358 10.7800467 331.428358 15.4000467 339.306046 15.4000467 339.306046 18.6200467 327.532173 18.6200467"></polygon>
                <polygon id="Fill-25" fill="#000000" mask="url(#mask-4)" points="346.700029 3.55581333 341.521705 3.55581333 341.521705 0.335813333 355.800607 0.335813333 355.800607 3.55581333 350.596214 3.55581333 350.596214 18.6198133 346.700029 18.6198133"></polygon>
                <polygon id="Fill-26" fill="#000000" mask="url(#mask-4)" points="358.758058 0.336046667 362.654243 0.336046667 362.654243 7.47604667 369.422798 7.47604667 369.422798 0.336046667 373.318983 0.336046667 373.318983 18.6200467 369.422798 18.6200467 369.422798 10.8360467 362.654243 10.8360467 362.654243 18.6200467 358.758058 18.6200467"></polygon>
                <polygon id="Fill-27" fill="#000000" mask="url(#mask-4)" points="377.81263 0.336046667 389.30211 0.336046667 389.30211 3.55604667 381.708815 3.55604667 381.708815 7.56004667 388.164538 7.56004667 388.164538 10.7800467 381.708815 10.7800467 381.708815 15.4000467 389.586503 15.4000467 389.586503 18.6200467 377.81263 18.6200467"></polygon>
                <path d="M397.207289,8.79204667 L399.513243,8.79204667 C400.686364,8.79204667 401.577462,8.55404667 402.186538,8.07804667 C402.790873,7.60204667 403.094225,6.88804667 403.094225,5.93604667 C403.094225,5.02138 402.800353,4.36804667 402.212607,3.97604667 C401.624861,3.58404667 400.724283,3.38804667 399.513243,3.38804667 L397.207289,3.38804667 L397.207289,8.79204667 Z M403.378618,18.6200467 L399.681509,11.8440467 L397.207289,11.8440467 L397.207289,18.6200467 L393.311104,18.6200467 L393.311104,0.336046667 L399.852145,0.336046667 C402.013532,0.336046667 403.72937,0.770046667 404.999659,1.63804667 C406.269948,2.50604667 406.905092,3.93871333 406.905092,5.93604667 C406.905092,7.24271333 406.60174,8.33938 405.995035,9.22604667 C405.388329,10.1127133 404.547,10.7707133 403.466306,11.2000467 L407.758272,18.6200467 L403.378618,18.6200467 Z" id="Fill-28" fill="#000000" mask="url(#mask-4)"></path>
            </g>
        </g>
    </g>
</svg>