<?xml version="1.0" encoding="UTF-8"?>
<svg width="60px" height="60px" viewBox="0 0 60 60" version="1.1" xmlns="http://www.w3.org/2000/svg" xmlns:xlink="http://www.w3.org/1999/xlink">
    <!-- Generator: Sketch 55.2 (78181) - https://sketchapp.com -->
    <title>instagram</title>
    <desc>Created with Sketch.</desc>
    <defs>
        <polygon id="path-1" points="0 0 38 0 38 38 0 38"></polygon>
    </defs>
    <g id="Page-1" stroke="none" stroke-width="1" fill="none" fill-rule="evenodd">
        <g id="instagram">
            <path d="M30,0 C46.5675,0 60,13.4325 60,30 C60,46.5675 46.5675,60 30,60 C13.4325,60 0,46.5675 0,30 C0,13.4325 13.4325,0 30,0 Z M42.4222891,19.8577109 C42.4222891,18.5985156 41.4014844,17.5777109 40.1422891,17.5777109 C38.8830938,17.5777109 37.8621406,18.5985156 37.8621406,19.8577109 C37.8621406,21.1169062 38.8830938,22.1377109 40.1422891,22.1377109 C41.4014844,22.1377109 42.4222891,21.1169062 42.4222891,19.8577109 Z M30,36.3333828 C26.5022188,36.3333828 23.6666172,33.4977813 23.6666172,30 C23.6666172,26.5022187 26.5022188,23.6666172 30,23.6666172 C33.4977813,23.6666172 36.3333828,26.5022187 36.3333828,30 C36.3333828,33.4977813 33.4977813,36.3333828 30,36.3333828 Z M30,20.2432031 C24.6115703,20.2432031 20.2432031,24.6114219 20.2432031,30 C20.2432031,35.3884297 24.6115703,39.7567969 30,39.7567969 C35.3884297,39.7567969 39.7567969,35.3884297 39.7567969,30 C39.7567969,24.6114219 35.3884297,20.2432031 30,20.2432031 Z M30,11 C24.8398672,11 24.1929766,11.0218203 22.1663594,11.1142969 C20.1440469,11.206625 18.7628359,11.5276953 17.5542578,11.9973516 C16.3048594,12.4830391 15.2453125,13.1326016 14.1890313,14.1890313 C13.13275,15.2451641 12.4830391,16.3047109 11.9975,17.5541094 C11.5278438,18.7628359 11.206625,20.1438984 11.1142969,22.1663594 C11.0218203,24.1928281 11,24.8398672 11,30 C11,35.1599844 11.0218203,35.8071719 11.1142969,37.8336406 C11.206625,39.8559531 11.5278438,41.2371641 11.9975,42.4455938 C12.4830391,43.6949922 13.13275,44.7546875 14.1890313,45.8109688 C15.2453125,46.86725 16.3048594,47.5168125 17.5542578,48.0025 C18.7628359,48.4721563 20.1440469,48.793375 22.1663594,48.8857031 C24.1929766,48.9780313 24.8398672,49 30,49 C35.1601328,49 35.8073203,48.9780313 37.8336406,48.8857031 C39.8561016,48.793375 41.2371641,48.4721563 42.4457422,48.0025 C43.6951406,47.5168125 44.7548359,46.86725 45.8111172,45.8109688 C46.86725,44.7546875 47.5169609,43.6951406 48.0026484,42.4455938 C48.4723047,41.2371641 48.793375,39.8559531 48.8857031,37.8336406 C48.9781797,35.8071719 49,35.1599844 49,30 C49,24.8398672 48.9781797,24.1928281 48.8857031,22.1663594 C48.793375,20.1438984 48.4723047,18.7628359 48.0026484,17.5541094 C47.5169609,16.3047109 46.86725,15.2451641 45.8111172,14.1890313 C44.7548359,13.1326016 43.6951406,12.4830391 42.4457422,11.9973516 C41.2371641,11.5276953 39.8561016,11.206625 37.8336406,11.1142969 C35.8073203,11.0218203 35.1601328,11 30,11 Z M30,14.4234141 C35.0732969,14.4234141 35.6741719,14.4427109 37.6776328,14.5341484 C39.5301328,14.6187578 40.5360938,14.92825 41.2058437,15.1883125 C42.0924609,15.5329844 42.7255469,15.94475 43.39025,16.6096016 C44.05525,17.2744531 44.4668672,17.9073906 44.8116875,18.7943047 C45.0718984,19.4639063 45.3813906,20.4698672 45.4658516,22.3223672 C45.5572891,24.3258281 45.5765859,24.9267031 45.5765859,30 C45.5765859,35.0731484 45.5572891,35.6740234 45.4658516,37.6774844 C45.3813906,39.5301328 45.0718984,40.5360938 44.8116875,41.2056953 C44.4668672,42.0924609 44.05525,42.7253984 43.39025,43.3903984 C42.7255469,44.0551016 42.0924609,44.4670156 41.2058437,44.8115391 C40.5360938,45.07175 39.5301328,45.3812422 37.6776328,45.4657031 C35.6744688,45.5571406 35.0735938,45.5764375 30,45.5764375 C24.9265547,45.5764375 24.3255312,45.5571406 22.3223672,45.4657031 C20.4700156,45.3812422 19.4639063,45.07175 18.7944531,44.8115391 C17.9075391,44.4670156 17.2744531,44.0551016 16.6096016,43.3903984 C15.9448984,42.7253984 15.5331328,42.0924609 15.1884609,41.2056953 C14.92825,40.5360938 14.6187578,39.5301328 14.5342969,37.6776328 C14.4427109,35.6740234 14.4234141,35.0731484 14.4234141,30 C14.4234141,24.9267031 14.4427109,24.3258281 14.5342969,22.3223672 C14.6187578,20.4698672 14.92825,19.4639063 15.1884609,18.7943047 C15.5331328,17.9073906 15.9448984,17.2744531 16.6096016,16.6096016 C17.2744531,15.94475 17.9075391,15.5329844 18.7944531,15.1883125 C19.4639063,14.92825 20.4700156,14.6187578 22.3223672,14.5341484 C24.3258281,14.4427109 24.9268516,14.4234141 30,14.4234141 Z" id="instagram-" fill="#FFFFFF" fill-rule="nonzero"></path>
            <g id="Group-3-Copy-4" transform="translate(11.000000, 11.000000)">
                <mask id="mask-2" fill="white">
                    <use xlink:href="#path-1"></use>
                </mask>
                <g id="Clip-2"></g>
            </g>
        </g>
    </g>
</svg>