<?xml version="1.0" encoding="UTF-8"?>
<svg width="60px" height="60px" viewBox="0 0 60 60" version="1.1" xmlns="http://www.w3.org/2000/svg" xmlns:xlink="http://www.w3.org/1999/xlink">
    <!-- Generator: Sketch 55.2 (78181) - https://sketchapp.com -->
    <title>youtube</title>
    <desc>Created with Sketch.</desc>
    <g id="Page-1" stroke="none" stroke-width="1" fill="none" fill-rule="evenodd">
        <g id="youtube" fill="#FFFFFF">
            <g id="linkedin-copy-2" fill-rule="nonzero">
                <path d="M30,0 C46.5675,0 60,13.4325 60,30 C60,46.5675 46.5675,60 30,60 C13.4325,60 0,46.5675 0,30 C0,13.4325 13.4325,0 30,0 Z M48.2477432,21.0599419 C47.8337432,19.4617806 46.6140386,18.2032968 45.0648114,17.7761839 C42.2576295,16.9999581 31.0000614,16.9999581 31.0000614,16.9999581 C31.0000614,16.9999581 19.7424932,16.9999581 16.9351068,17.7761839 C15.3860841,18.2032968 14.166175,19.4617806 13.752175,21.0599419 C13.0000614,23.9564258 13.0000614,29.9999581 13.0000614,29.9999581 C13.0000614,29.9999581 13.0000614,36.0432806 13.752175,38.9401839 C14.166175,40.5381355 15.3860841,41.7966194 16.9351068,42.2239419 C19.7424932,42.9999581 31.0000614,42.9999581 31.0000614,42.9999581 C31.0000614,42.9999581 42.2576295,42.9999581 45.0648114,42.2239419 C46.6140386,41.7966194 47.8337432,40.5381355 48.2477432,38.9401839 C49.0000614,36.0432806 49.0000614,29.9999581 49.0000614,29.9999581 C49.0000614,29.9999581 49.0000614,23.9564258 48.2477432,21.0599419 Z" id="Combined-Shape"></path>
            </g>
            <g id="Fill-5" transform="translate(28.000000, 24.000000)">
                <polygon id="Fill-4" points="0 11 9 5.50021017 0 0"></polygon>
            </g>
        </g>
    </g>
</svg>